<?xml version="1.0" encoding="utf-8"?>
<!-- Generator: Adobe Illustrator 24.1.1, SVG Export Plug-In . SVG Version: 6.00 Build 0)  -->
<svg version="1.1" id="Layer_1" xmlns="http://www.w3.org/2000/svg" xmlns:xlink="http://www.w3.org/1999/xlink" x="0px" y="0px"
	 viewBox="0 0 512 512" style="enable-background:new 0 0 512 512;" xml:space="preserve">
<g>
	<path d="M188.5,401.8c-15.8,4.7-28.3,6.5-38.2,6.5c-13.4-0.1-22-3-29.4-7.2c-11.1-6.4-20.1-17.6-30.4-30.9
		c-5.2-6.6-10.8-13.5-18-20c-7.2-6.4-16.4-12.5-27.8-15.3c-11.9-3-24,4.3-27,16.2c-3,11.9,4.3,24,16.2,27c3.4,0.8,7.2,3.2,12.8,9.1
		c8.3,8.7,18,24.3,33.6,38.8c7.9,7.2,17.5,14.2,29.3,19.1c11.7,5,25.4,7.8,40.8,7.8c15.2,0,32-2.7,51-8.4
		c11.8-3.5,18.4-15.9,14.9-27.7C212.6,404.9,200.2,398.2,188.5,401.8L188.5,401.8z M372.7,489.8v-86h-22.2l22.2,1.7
		c0.2-2.5,0.3-5.1,0.3-7.6c0-25.2-9.8-49.4-27.4-67.6l-16,15.5l2.5,22.1c36.7-4.2,77-13,109.6-40.3c16.2-13.6,29.9-31.8,39.2-54.7
		c9.3-22.9,14.2-50.2,14.2-82.8c0-36.7-14.1-72.1-39.5-98.7l-16.1,15.3l20.8,7.8c5.7-15.2,8.5-31.2,8.5-47.2
		c0-18.1-3.6-36.2-10.9-53.2c-2.6-6.1-7.8-10.7-14.1-12.6c-2-0.6-6.2-1.5-12.5-1.5c-16.6,0-46.7,6.2-93.1,37.3l12.4,18.5l5.8-21.5
		c-27.4-7.4-55.5-11.1-83.6-11.1c-28.1,0-56.3,3.7-83.6,11.1l5.8,21.5l12.4-18.5C160.8,6.2,130.7,0,114.1,0
		c-6.3,0-10.5,0.9-12.5,1.5C95.3,3.4,90.1,8,87.5,14.1c-7.3,17-10.9,35.1-10.9,53.2c0,16,2.8,32,8.5,47.2l20.8-7.8L89.8,91.3
		c-25.3,26.6-39.5,62-39.5,98.8l0,0.8l0-0.1c0,32.4,4.9,59.6,14.2,82.3c13.8,34.3,38,57.6,64.8,71.7c26.9,14.2,56.2,20.3,83.7,23.7
		l2.7-22.1l-16-15.5c-17.6,18.2-27.3,42.5-27.3,67.6c0,2.3,0.1,4.5,0.2,6.8l22.2-1.6h-22.2v86c0,12.3,10,22.2,22.2,22.2
		c12.3,0,22.2-10,22.2-22.2v-86l-0.1-1.6l-0.1-3.7c0-13.6,5.3-26.8,14.8-36.7c5.9-6.1,7.8-14.9,5-22.9s-9.9-13.6-18.2-14.7
		c-33.3-4-64.6-12.5-86.2-30.8c-10.9-9.2-19.9-20.8-26.6-37.2c-6.7-16.4-10.9-37.7-10.9-65.6l0-0.1l0-0.5c0-25.3,9.7-49.7,27.2-68.1
		c5.9-6.2,7.7-15.1,4.7-23.1C122.9,88.7,121,78,121,67.2c0-12.1,2.4-24.3,7.3-35.7l-20.4-8.8l6.3,21.3l-3.2-11l1.6,11.3l1.6-0.4
		l-3.2-11l1.6,11.3l1.5-0.1c5.3,0,26.9,2,68.4,29.7c5.3,3.6,12,4.7,18.2,3c23.6-6.4,47.8-9.6,72-9.6c24.2,0,48.4,3.2,72,9.6
		c6.2,1.7,12.9,0.6,18.2-3c41.4-27.8,63.1-29.8,68.4-29.7l1.5,0.1l1.6-11.3l-3.2,11l1.6,0.4l1.6-11.3l-3.2,11l6.3-21.3L417,31.6
		c4.9,11.4,7.3,23.5,7.3,35.7c0,10.7-1.9,21.4-5.7,31.6c-3,8-1.1,16.9,4.7,23.1c17.5,18.3,27.2,42.7,27.2,68.1
		c0,28.1-4.3,49.6-10.9,66.1c-10.1,24.6-25.1,38.9-44.4,49.2c-19.3,10.2-43.3,15.5-68.1,18.2c-8.5,0.9-15.6,6.6-18.5,14.6
		c-2.9,8-1,16.9,5,23c9.6,9.9,14.9,23,14.9,36.7l-0.2,4.1l-0.1,1.7v86c0,12.3,10,22.2,22.2,22.2C362.8,512,372.7,502,372.7,489.8
		L372.7,489.8z"/>
</g>
</svg>
